<svg xmlns="http://www.w3.org/2000/svg" width="340" height="108" viewBox="0 0 340 108" role="img" aria-label="MAMEE logo">
  <rect x="6" y="14" width="328" height="80" rx="40" fill="#cd1f2d"/>
  <rect x="20" y="24" width="300" height="60" rx="30" fill="#f6cb3c"/>
  <rect x="30" y="30" width="280" height="48" rx="24" fill="#ffffff"/>

  <circle cx="32" cy="24" r="4" fill="#f6cb3c"/>
  <circle cx="56" cy="24" r="4" fill="#f6cb3c"/>
  <circle cx="80" cy="24" r="4" fill="#f6cb3c"/>
  <circle cx="104" cy="24" r="4" fill="#f6cb3c"/>
  <circle cx="128" cy="24" r="4" fill="#f6cb3c"/>
  <circle cx="152" cy="24" r="4" fill="#f6cb3c"/>
  <circle cx="176" cy="24" r="4" fill="#f6cb3c"/>
  <circle cx="200" cy="24" r="4" fill="#f6cb3c"/>
  <circle cx="224" cy="24" r="4" fill="#f6cb3c"/>
  <circle cx="248" cy="24" r="4" fill="#f6cb3c"/>
  <circle cx="272" cy="24" r="4" fill="#f6cb3c"/>
  <circle cx="296" cy="24" r="4" fill="#f6cb3c"/>

  <circle cx="32" cy="84" r="4" fill="#f6cb3c"/>
  <circle cx="56" cy="84" r="4" fill="#f6cb3c"/>
  <circle cx="80" cy="84" r="4" fill="#f6cb3c"/>
  <circle cx="104" cy="84" r="4" fill="#f6cb3c"/>
  <circle cx="128" cy="84" r="4" fill="#f6cb3c"/>
  <circle cx="152" cy="84" r="4" fill="#f6cb3c"/>
  <circle cx="176" cy="84" r="4" fill="#f6cb3c"/>
  <circle cx="200" cy="84" r="4" fill="#f6cb3c"/>
  <circle cx="224" cy="84" r="4" fill="#f6cb3c"/>
  <circle cx="248" cy="84" r="4" fill="#f6cb3c"/>
  <circle cx="272" cy="84" r="4" fill="#f6cb3c"/>
  <circle cx="296" cy="84" r="4" fill="#f6cb3c"/>

  <text x="170" y="68" text-anchor="middle" fill="#cf1f2d" font-family="Montserrat, Arial, sans-serif" font-size="56" font-weight="800" letter-spacing="2">MAMEE</text>
</svg>
