<svg xmlns="http://www.w3.org/2000/svg" width="360" height="120" viewBox="0 0 360 120" role="img" aria-label="MAMEE logo">
  <rect x="12" y="20" width="336" height="80" rx="40" fill="#cd1f2d"/>
  <rect x="26" y="30" width="308" height="60" rx="30" fill="#f6cb3c"/>
  <rect x="36" y="36" width="288" height="48" rx="24" fill="#ffffff"/>

  <circle cx="38" cy="30" r="4" fill="#f6cb3c"/>
  <circle cx="62" cy="30" r="4" fill="#f6cb3c"/>
  <circle cx="86" cy="30" r="4" fill="#f6cb3c"/>
  <circle cx="110" cy="30" r="4" fill="#f6cb3c"/>
  <circle cx="134" cy="30" r="4" fill="#f6cb3c"/>
  <circle cx="158" cy="30" r="4" fill="#f6cb3c"/>
  <circle cx="182" cy="30" r="4" fill="#f6cb3c"/>
  <circle cx="206" cy="30" r="4" fill="#f6cb3c"/>
  <circle cx="230" cy="30" r="4" fill="#f6cb3c"/>
  <circle cx="254" cy="30" r="4" fill="#f6cb3c"/>
  <circle cx="278" cy="30" r="4" fill="#f6cb3c"/>
  <circle cx="302" cy="30" r="4" fill="#f6cb3c"/>

  <circle cx="38" cy="90" r="4" fill="#f6cb3c"/>
  <circle cx="62" cy="90" r="4" fill="#f6cb3c"/>
  <circle cx="86" cy="90" r="4" fill="#f6cb3c"/>
  <circle cx="110" cy="90" r="4" fill="#f6cb3c"/>
  <circle cx="134" cy="90" r="4" fill="#f6cb3c"/>
  <circle cx="158" cy="90" r="4" fill="#f6cb3c"/>
  <circle cx="182" cy="90" r="4" fill="#f6cb3c"/>
  <circle cx="206" cy="90" r="4" fill="#f6cb3c"/>
  <circle cx="230" cy="90" r="4" fill="#f6cb3c"/>
  <circle cx="254" cy="90" r="4" fill="#f6cb3c"/>
  <circle cx="278" cy="90" r="4" fill="#f6cb3c"/>
  <circle cx="302" cy="90" r="4" fill="#f6cb3c"/>

  <text x="180" y="74" text-anchor="middle" fill="#cf1f2d" font-family="Montserrat, Arial, sans-serif" font-size="54" font-weight="800" letter-spacing="2">MAMEE</text>
</svg>
