<svg xmlns="http://www.w3.org/2000/svg" width="256" height="256" viewBox="0 0 256 256" role="img" aria-label="Monash Green Representative Network logo">
  <rect width="256" height="256" fill="#f2fbf2"/>
  <circle cx="128" cy="128" r="118" fill="#fff" stroke="#9bd5a7" stroke-width="6"/>
  <circle cx="128" cy="128" r="92" fill="none" stroke="#d8efe0" stroke-width="8"/>
  <g transform="translate(128,128)">
    <path d="M0 0C16-48 50-58 72-30 38-26 20-8 0 0Z" fill="#5abf63"/>
    <path d="M0 0C48-16 58-50 30-72 26-38 8-20 0 0Z" fill="#7cd66f"/>
    <path d="M0 0C-16-48-50-58-72-30-38-26-20-8 0 0Z" fill="#77c943"/>
    <path d="M0 0C-48-16-58-50-30-72-26-38-8-20 0 0Z" fill="#98de74"/>
    <path d="M0 0C16 48 50 58 72 30 38 26 20 8 0 0Z" fill="#3ca95d"/>
    <path d="M0 0C48 16 58 50 30 72 26 38 8 20 0 0Z" fill="#6fce80"/>
    <path d="M0 0C-16 48-50 58-72 30-38 26-20 8 0 0Z" fill="#56b85d"/>
    <path d="M0 0C-48 16-58 50-30 72-26 38-8 20 0 0Z" fill="#8ed688"/>
    <circle r="22" fill="#fff"/>
  </g>
  <text x="128" y="36" text-anchor="middle" font-family="Montserrat, Arial, sans-serif" font-size="14" fill="#1f2f2b" letter-spacing="1.4">GREEN REPRESENTATIVE NETWORK</text>
  <text x="108" y="176" font-family="Montserrat, Arial, sans-serif" font-size="54" font-weight="700" fill="#111">GRN</text>
  <text x="126" y="194" font-family="Montserrat, Arial, sans-serif" font-size="12" font-weight="600" fill="#111">MONASH</text>
</svg>
