<svg xmlns="http://www.w3.org/2000/svg" width="256" height="256" viewBox="0 0 256 256" role="img" aria-label="Monash University Volunteer Program logo">
  <rect width="256" height="256" fill="#ececec"/>
  <g transform="translate(28,68)">
    <g transform="translate(0,0)">
      <circle cx="20" cy="20" r="12" fill="#2a83c9"/>
      <rect x="0" y="36" width="40" height="72" rx="10" fill="#2a83c9"/>
      <rect x="18" y="72" width="4" height="24" fill="#fff"/>
      <rect x="28" y="72" width="4" height="24" fill="#fff"/>
    </g>
    <g transform="translate(52,0)">
      <circle cx="20" cy="20" r="12" fill="#2f2b33"/>
      <rect x="0" y="36" width="40" height="72" rx="10" fill="#2f2b33"/>
      <rect x="18" y="52" width="4" height="18" fill="#fff"/>
    </g>
    <g transform="translate(104,0)">
      <circle cx="20" cy="20" r="12" fill="#2a83c9"/>
      <path d="M0 54 20 36 40 54v44a10 10 0 0 1-10 10H10A10 10 0 0 1 0 98Z" fill="#2a83c9"/>
      <rect x="18" y="58" width="4" height="22" fill="#fff"/>
    </g>
    <g transform="translate(156,0)">
      <circle cx="20" cy="20" r="12" fill="#2f2b33"/>
      <path d="M0 36h26q18 0 18 18t-18 18H18v36H0Z" fill="#2f2b33"/>
      <rect x="16" y="54" width="4" height="22" fill="#fff"/>
    </g>
  </g>
  <text x="128" y="228" text-anchor="middle" font-family="Montserrat, Arial, sans-serif" font-size="14" fill="#2f5f9d">Monash University Volunteer Program</text>
</svg>
